<?xml version="1.0" encoding="UTF-8" standalone="no"?>
<!-- Created with Inkscape (http://www.inkscape.org/) -->

<svg
   xmlns:dc="http://purl.org/dc/elements/1.1/"
   xmlns:cc="http://creativecommons.org/ns#"
   xmlns:rdf="http://www.w3.org/1999/02/22-rdf-syntax-ns#"
   xmlns:svg="http://www.w3.org/2000/svg"
   xmlns="http://www.w3.org/2000/svg"
   xmlns:sodipodi="http://sodipodi.sourceforge.net/DTD/sodipodi-0.dtd"
   xmlns:inkscape="http://www.inkscape.org/namespaces/inkscape"
   version="1.0"
   width="900"
   height="900"
   id="svg2848"
   inkscape:version="0.48.3.1 r9886"
   sodipodi:docname="Toolserver logo modified.svg"
   inkscape:export-filename="/home/john/www/wsecho/wiki/.toolserver/public_html/images/Toolserver_IL-123.png"
   inkscape:export-xdpi="12.3"
   inkscape:export-ydpi="12.3">
  <metadata
     id="metadata14">
    <rdf:RDF>
      <cc:Work
         rdf:about="">
        <dc:format>image/svg+xml</dc:format>
        <dc:type
           rdf:resource="http://purl.org/dc/dcmitype/StillImage" />
        <dc:title></dc:title>
      </cc:Work>
    </rdf:RDF>
  </metadata>
  <sodipodi:namedview
     pagecolor="#ffffff"
     bordercolor="#666666"
     borderopacity="1"
     objecttolerance="10"
     gridtolerance="10"
     guidetolerance="10"
     inkscape:pageopacity="0"
     inkscape:pageshadow="2"
     inkscape:window-width="1485"
     inkscape:window-height="876"
     id="namedview12"
     showgrid="false"
     inkscape:zoom="1"
     inkscape:cx="450"
     inkscape:cy="450"
     inkscape:window-x="115"
     inkscape:window-y="0"
     inkscape:window-maximized="1"
     inkscape:current-layer="layer1" />
  <defs
     id="defs2850" />
  <g
     transform="translate(-5.71875,-8.5625)"
     id="layer1">
    <g
       transform="matrix(2,0,0,2,-55.71875,-58.5625)"
       id="g5059">
      <g
         transform="matrix(0.917408,-0.397949,0.397949,0.917408,-81.77317,123.1247)"
         id="g5055"
         style="fill:#ffb134;fill-opacity:1">
        <path
           d="M 255,100.25 L 255,175.1875 C 294.01847,177.77814 325,210.33881 325,250 C 324.99999,289.6612 294.01847,322.22422 255,324.8125 L 255,399.75 L 267.125,399.75 L 270.21875,380.53125 C 275.11476,350.15728 274.33775,353.22507 277.46875,352.4375 C 283.16526,351.0046 290.30185,348.22627 297.96875,344.46875 L 305.96875,340.5625 L 324.71875,354.0625 C 335.03044,361.49191 343.7102,367.5625 344,367.5625 C 344.28959,367.56249 349.7959,362.27414 356.25,355.8125 C 363.8613,348.19243 367.821,343.7694 367.5,343.25 C 367.22781,342.80957 361.24625,334.47884 354.21875,324.71875 C 347.19134,314.95865 341.2883,306.61296 341.125,306.1875 C 340.96179,305.76206 342.44765,302.17225 344.40625,298.21875 C 347.74334,291.48261 350.9508,283.34859 352.625,277.25 L 353.34375,274.59375 L 372.875,271.4375 C 383.63061,269.69171 394.14165,267.95297 396.21875,267.59375 L 400,266.9375 L 400,249.9375 C 399.99989,240.58436 399.7709,232.9379 399.5,232.9375 C 399.229,232.93708 391.03425,231.62721 381.28125,230.03125 C 371.52823,228.4353 361.26865,226.75248 358.46875,226.3125 L 353.375,225.5 L 352.625,222.8125 C 350.41151,214.82086 345.4683,202.80081 342.375,197.875 C 341.49792,196.47829 340.9042,194.85585 341.0625,194.25 C 341.22111,193.64416 347.1027,185.17464 354.125,175.4375 C 361.14729,165.70036 367.1359,157.33562 367.4375,156.84375 C 367.83099,156.20224 364.668,152.61526 356.25,144.1875 C 349.7959,137.72587 344.2497,132.4375 343.9375,132.4375 C 343.62539,132.4375 339.66185,135.15227 335.09375,138.46875 C 321.59374,148.26991 315.88875,152.39307 310.78125,156.03125 L 305.96875,159.4375 L 297.96875,155.5625 C 290.20815,151.77352 283.04805,148.97024 277.34375,147.53125 C 275.80844,147.14396 274.5625,146.6222 274.5625,146.34375 C 274.56251,146.06531 273.39195,138.7416 271.96875,130.09375 C 270.54556,121.44589 268.8726,111.19563 268.25,107.3125 L 267.125,100.25 L 255,100.25 z M 255,185.1875 L 255,229.59375 C 261.08108,231.02894 266.34785,235.05833 269.3125,241.125 C 271.6155,245.83747 271.6155,254.16252 269.3125,258.875 C 266.36712,264.90215 261.08021,268.9408 255,270.40625 L 255,314.8125 C 288.58953,312.26224 315,284.25024 315,250 C 315,215.74977 288.58953,187.74045 255,185.1875 z "
           transform="translate(5.71875,8.5625)"
           style="fill:#ffb134;fill-opacity:1"
           id="path5037" />
        <path
           d="M 248.00112,108.76642 C 229.79989,109.69003 212.45917,113.882 196.53237,120.73517 C 201.91835,123.19575 207.48673,125.32203 213.21986,127.07891 C 223.94144,119.64768 235.60281,113.47262 248.00112,108.76642 z M 250.71987,118.29767 C 242.14402,121.60237 233.95719,125.66712 226.21987,130.39142 C 234.15673,131.98955 242.35065,132.88451 250.71987,133.04766 L 250.71987,118.29767 z M 185.06361,126.23517 C 164.06694,137.4741 146.06598,153.54504 132.53237,172.98517 C 141.24948,178.95137 150.42355,184.30615 160.00111,188.95391 C 170.3463,167.755 185.28575,149.14735 203.50112,134.39142 C 197.14249,132.09092 190.98183,129.35395 185.06361,126.23517 z M 214.93862,137.98516 C 195.51658,152.37076 179.69501,171.24858 169.03237,193.07891 C 194.15201,203.85153 221.74361,209.96812 250.71987,210.32892 L 250.71987,143.04767 C 238.36494,142.82201 226.37491,141.08801 214.93862,137.98516 z M 127.09487,181.36017 C 114.03108,203.06668 106.31503,228.33128 105.75111,255.36017 C 118.20942,262.47108 131.22205,268.73118 144.71986,274.01642 C 144.22575,268.92181 143.96986,263.76933 143.96987,258.54767 C 143.96987,237.16013 148.21481,216.74499 155.90737,198.07892 C 145.86289,193.21578 136.23818,187.60876 127.09487,181.36017 z M 164.93862,202.17267 C 157.83669,219.5804 153.93862,238.61552 153.93862,258.54767 C 153.93862,265.10357 154.36812,271.55697 155.18862,277.89142 C 185.14983,288.33994 217.27235,294.15415 250.71987,294.45392 L 250.71987,220.32891 C 220.29854,219.96575 191.31362,213.52459 164.93862,202.17267 z M 105.93862,266.89141 C 107.53892,296.03837 117.48392,322.97388 133.40737,345.36016 C 148.10204,350.38281 163.19801,354.50786 178.65737,357.67267 C 162.22355,337.02303 150.8073,312.28759 146.21987,285.26642 C 132.29117,280.09358 118.8371,273.93603 105.93862,266.89141 z M 157.06362,289.07892 C 162.72113,316.28418 175.79964,340.81323 194.09487,360.48517 C 212.55313,363.4541 231.4591,365.03386 250.71986,365.17267 L 250.71987,304.45392 C 218.04728,304.16988 186.57233,298.79405 157.06362,289.07892 z M 144.68862,359.39141 C 170.559,387.85322 207.22597,406.3322 248.18861,408.36017 C 225.76609,399.8764 205.71888,386.61578 189.34487,369.79766 C 174.13334,367.21606 159.23241,363.72084 144.68862,359.39141 z M 206.40737,372.32891 C 219.42822,383.50302 234.38932,392.50329 250.71987,398.79767 L 250.71987,375.17266 C 235.72697,375.06724 220.94373,374.12208 206.40737,372.32891 z "
           style="fill:#ffb134;fill-opacity:1;stroke:none;stroke-width:1;stroke-linecap:round;stroke-linejoin:round;stroke-miterlimit:4;stroke-dasharray:none;stroke-opacity:1"
           id="path2862" />
      </g>
      <path
         d="M 255.71875,33.5625 C 178.93962,33.5625 111.10867,72.086118 70.5,130.84375 L 114,155.96875 C 145.8111,112.11504 197.43839,83.5625 255.71875,83.5625 C 313.99911,83.562502 365.6264,112.11504 397.4375,155.96875 L 440.9375,130.84375 C 400.32883,72.086118 332.49788,33.5625 255.71875,33.5625 z "
         style="opacity:1;fill:#cccccc;fill-opacity:1;stroke:none;stroke-width:10;stroke-linecap:round;stroke-linejoin:round;stroke-miterlimit:4;stroke-dasharray:none;stroke-opacity:1"
         id="path4005" />
      <path
         d="M 46.8125,174.9375 C 36.442946,200.79582 30.71875,229.01254 30.71875,258.5625 C 30.71875,374.31432 118.2675,469.74106 230.71875,482.1875 L 230.71875,431.75 C 145.95412,419.60155 80.71875,346.67019 80.71875,258.5625 C 80.718751,238.11672 84.234053,218.49436 90.6875,200.25 L 46.8125,174.9375 z "
         style="opacity:1;fill:#555555;fill-opacity:1;stroke:none;stroke-width:10;stroke-linecap:round;stroke-linejoin:round;stroke-miterlimit:4;stroke-dasharray:none;stroke-opacity:1"
         id="path4003" />
      <path
         d="M 464.625,174.9375 L 420.75,200.25 C 427.20345,218.49436 430.71875,238.11672 430.71875,258.5625 C 430.71875,346.67018 365.48339,419.60155 280.71875,431.75 L 280.71875,482.1875 C 393.16999,469.74106 480.71874,374.31432 480.71875,258.5625 C 480.71875,229.01254 474.99455,200.79582 464.625,174.9375 z "
         style="opacity:1;fill:#555555;fill-opacity:1;stroke:none;stroke-width:10;stroke-linecap:round;stroke-linejoin:round;stroke-miterlimit:4;stroke-dasharray:none;stroke-opacity:1"
         id="path3918" />
    </g>
  </g>
</svg>
